PathFileType	4	(X/Y/Z)	OpenSim_Sub02_CSStiffKnee_Gyro.trc
DataRate	CameraRate	NumFrames	NumMarkers	Units	OrigDataRate	OrigDataStartFrame	OrigNumFrames
100	100	23	8	m	100	4307	6891
Frame#	Time	torso_imu_offset_imu	pelvis_imu_offset_imu	tibia_r_imu_offset_imu	femur_r_imu_offset_imu	tibia_l_imu_offset_imu	femur_l_imu_offset_imu	toes_r_imu_offset_imu	toes_l_imu_offset_imu
				X1	Y1	Z1	X2	Y2	Z2	X3	Y3	Z3	X4	Y4	Z4	X5	Y5	Z5	X6	Y6	Z6	X7	Y7	Z7	X8		Y8	Z8	

4307	43.06000000	-0.51844613	0.19475194	0.09160725	-0.33170805	-0.27493014	0.07077627	0.12365950	0.32935847	-1.49365919	-0.03434032	0.07223013	-0.40209359	0.71434658	0.28235484	1.65207132	-1.11378914	-0.35887379	-0.32384267	0.06979061	-1.49923879	-0.21737198	0.04251228	-2.02141097	1.25197902
4308	43.07000000	-0.55816963	0.24636335	0.08020880	-0.37765333	-0.18835232	0.09281948	0.13584412	0.32728577	-1.57031309	0.16440341	0.12258486	-0.37331893	0.89574902	0.65708078	2.58492347	-1.07491546	-0.34200714	-0.31511740	0.09797133	-1.72272012	-0.19445581	-2.75774685	1.68948941	-0.57572451
4309	43.08000000	-0.59652007	0.30915514	0.05979684	-0.41720187	-0.14284082	0.12344721	0.10216999	0.30267384	-1.66260647	0.35060139	0.19431359	-0.32440795	0.73498915	0.51391146	3.17682642	-0.84603101	-0.20408994	-0.23435878	0.12689821	-1.97922930	-0.18972547	-0.41311627	0.06702429	0.61980665
4310	43.09000000	-0.63489959	0.36054526	0.04047710	-0.48263808	-0.08964364	0.14061352	0.04677289	0.27104409	-1.76643045	0.48883034	0.28880446	-0.19701603	0.72178537	0.03550454	2.18046788	-0.68417656	-0.12022322	-0.02205351	0.14505767	-2.24382624	-0.21283945	0.03309239	-0.28098692	0.76507369
4311	43.10000000	-0.68143756	0.39498756	0.03454507	-0.52680033	-0.01811195	0.10515506	-0.00748798	0.25473760	-1.91607259	0.54439262	0.38446642	-0.01990985	1.85634713	0.26586745	0.28795041	-0.68707250	-0.29660247	0.39846898	0.14715516	-2.57820977	-0.21498346	-0.13607851	-0.06660299	0.32625122
4312	43.11000000	-0.73260809	0.39607590	-0.00007010	-0.50134549	0.02719956	0.04322061	-0.04717835	0.24026443	-2.08447902	0.55360383	0.49083758	0.24478761	0.95263044	0.52962118	0.13649603	-0.51613766	-0.52462247	0.89257986	0.18831617	-2.96080018	-0.23217065	-0.42006937	0.19627290	0.14444126
4313	43.12000000	-0.78713740	0.39251207	-0.05043692	-0.47386677	0.07291535	-0.02739399	-0.11534761	0.20271016	-2.26435909	0.48819060	0.65815442	0.52703439	-0.70417996	0.09249058	0.94126443	-0.01858752	-0.54848347	1.13017243	0.33222119	-3.42355827	-0.29100694	0.05404965	-0.14865834	0.29114423
4314	43.13000000	-0.82157102	0.38982618	-0.10346587	-0.48181094	0.10899190	-0.09917905	-0.14275457	0.18691705	-2.44668690	0.34634071	0.87482796	0.80023322	-1.51560249	-0.07192203	1.13253124	0.42459283	-0.38417712	1.09843745	0.49949588	-4.01568404	-0.37872173	-0.15338571	-0.01449663	0.14679547
4315	43.14000000	-0.84298460	0.36096558	-0.18318751	-0.52042869	0.11617039	-0.16892178	-0.16680463	0.19958251	-2.62964639	0.24126721	1.03825011	1.08807540	-2.19361955	0.00338258	0.98465722	0.48224665	-0.15617177	0.96390340	0.39643252	-4.61899459	-0.47970306	0.05304116	-0.07878309	0.07325857
4316	43.15000000	-0.87270723	0.28494311	-0.27168431	-0.56806161	0.11471869	-0.22986709	-0.19072247	0.30455621	-2.77932390	0.15145308	1.12924414	1.36691417	-1.78102692	-0.21341397	0.97675115	0.11780057	-0.06581323	0.93113493	0.37438633	-5.16776697	-0.62038020	0.12213243	-0.10176832	0.04879678
4317	43.16000000	-0.92984777	0.17840864	-0.34590030	-0.61566287	0.13707547	-0.27896524	-0.18383761	0.41212156	-2.87536085	-0.03763162	1.17574730	1.64302958	-0.70907390	-0.11195554	0.73402609	-0.37778951	-0.12911983	0.96512495	0.70876325	-5.46757068	-0.85320501	0.12272964	-0.13041222	0.00442938
4318	43.17000000	-0.96975947	0.10670711	-0.40403980	-0.62846088	0.16808464	-0.31748125	-0.32761277	0.43080072	-2.85589644	-0.32042542	1.21378367	1.93115464	0.13158109	-0.06852562	0.51328675	-0.73883408	-0.18038780	0.97690711	0.86309684	-5.66269819	-1.16843161	0.20797539	-0.15299097	-0.02898855
4319	43.18000000	-0.99235502	0.03713277	-0.47051183	-0.61692373	0.21087320	-0.35303877	-0.44321824	0.36010034	-2.75741516	-0.60534164	1.24624909	2.14795621	0.75658329	0.03230790	0.68030368	-0.92115214	-0.14877000	0.90661507	0.83530463	-5.77752862	-1.53557976	0.20800656	-0.16586666	-0.06481292
4320	43.19000000	-0.99982988	-0.02237766	-0.54316774	-0.60496036	0.26479732	-0.37870608	-0.40041802	0.20698991	-2.60504228	-0.81016842	1.22930623	2.22521498	1.02230776	0.12012350	0.84422178	-0.96993274	-0.14656452	0.84695303	0.58138474	-5.43802853	-1.74949654	0.23964516	-0.18223442	-0.05577893
4321	43.20000000	-0.98918324	-0.09009187	-0.60123772	-0.59544842	0.31773169	-0.36971727	-0.28263660	0.01544325	-2.42612592	-1.00875331	1.15841315	2.15929632	0.75838591	0.12834856	0.92610638	-0.96960063	-0.20029499	0.84256630	-0.53005548	-4.67091424	-1.84768564	0.18374034	-0.20868147	-0.01630044
4322	43.21000000	-0.96544663	-0.14885089	-0.63515723	-0.59818448	0.34972964	-0.31216665	0.03270950	-0.11131827	-2.24562017	-1.29229485	1.07268011	2.05272179	0.39688839	0.15734011	0.86040166	-0.91670239	-0.26357437	0.77052685	-2.25636329	-3.87017713	-2.06053441	0.15260316	-0.22887635	0.00500661
4323	43.22000000	-0.93985727	-0.18857057	-0.66974095	-0.59607774	0.36610888	-0.24287204	0.70352614	-0.10369139	-2.07591713	-1.68205845	1.01417589	2.00898466	-0.06501658	0.12024239	0.80745566	-0.68948634	-0.21881876	0.64830195	-3.26219781	-1.96292551	-2.62427612	0.13234846	-0.27179110	0.03943965
4324	43.23000000	-0.90642885	-0.19840176	-0.70834239	-0.57964977	0.38494561	-0.16440557	1.10738477	-0.10340137	-1.83626288	-2.01003980	0.95152817	1.99746024	-0.37511559	0.11381431	0.81743168	-0.42246362	-0.14117306	0.55148545	-1.50394487	0.39439329	-3.10182457	0.10037040	-0.32075327	0.06634888
4325	43.24000000	-0.84594367	-0.17805996	-0.73629243	-0.60180834	0.40785264	-0.07915598	0.54989400	-0.23203577	-1.36322492	-2.09985475	0.86316561	1.94845802	-0.51455264	0.16835477	0.87049342	-0.18701537	-0.10192889	0.48010407	-1.49090549	1.90418901	-3.33472926	0.11158173	-0.38199202	0.05623352
4326	43.25000000	-0.78371295	-0.18396239	-0.72824681	-0.66759839	0.39836515	0.00470195	-0.88520994	-0.60352079	-0.70430614	-1.96351409	0.79394745	1.88097015	-0.41737996	0.24488243	0.90293264	-0.00982960	-0.08584168	0.46892644	-0.41752921	2.77986976	-3.34165793	0.13737386	-0.44243417	0.05212246
4327	43.26000000	-0.72213624	-0.19747975	-0.70643561	-0.75999968	0.34125646	0.07500918	-2.61197183	-1.14655632	0.00267145	-1.72220234	0.73781145	1.85230426	-0.33415076	0.27578722	0.88094825	0.12834656	-0.11746627	0.50128484	-0.62193378	3.00380679	-2.97274346	0.12132864	-0.52033406	0.05365385
4328	43.27000000	-0.66827183	-0.22769508	-0.65801646	-0.84951592	0.25994633	0.12827011	-4.19727005	-1.62840726	0.78381570	-1.43885037	0.68641212	1.85849506	-0.19807058	0.25668763	0.79995167	0.24591059	-0.18397699	0.57407185	-0.82248146	3.18348492	-2.33119858	0.11005235	-0.59409762	0.05695239
4329	43.28000000	-0.63516990	-0.24943285	-0.61489490	-0.91159873	0.17108628	0.15624001	-5.12347920	-1.86376729	1.59941051	-1.10502233	0.61914428	1.89413556	-0.00771568	0.30064142	0.70567310	0.37051265	-0.21310129	0.70589167	-1.19769342	3.19462023	-1.52236356	0.13050323	-0.66805243	0.05659189
